<svg width="41" height="27" viewBox="0 0 41 27" fill="none" xmlns="http://www.w3.org/2000/svg">
<path d="M31.01 26.548C28.9247 26.548 27.1567 26.1967 25.706 25.494C24.2553 24.7687 23.02 23.8393 22 22.706L25.4 19.272C27.0093 21.0853 28.9927 21.992 31.35 21.992C32.6193 21.992 33.56 21.7313 34.172 21.21C34.784 20.6887 35.09 19.9973 35.09 19.136C35.09 18.4787 34.9087 17.9347 34.546 17.504C34.1833 17.0507 33.4467 16.7447 32.336 16.586L29.99 16.28C27.474 15.9627 25.6267 15.2033 24.448 14.002C23.292 12.8007 22.714 11.2027 22.714 9.208C22.714 8.14267 22.918 7.168 23.326 6.284C23.734 5.4 24.312 4.64067 25.06 4.006C25.8307 3.37133 26.76 2.884 27.848 2.544C28.9587 2.18133 30.2167 2 31.622 2C33.4127 2 34.988 2.28333 36.348 2.85C37.708 3.41667 38.8753 4.244 39.85 5.332L36.416 8.8C35.8493 8.14267 35.158 7.61 34.342 7.202C33.5487 6.77133 32.54 6.556 31.316 6.556C30.16 6.556 29.2987 6.76 28.732 7.168C28.1653 7.576 27.882 8.14267 27.882 8.868C27.882 9.684 28.0973 10.2733 28.528 10.636C28.9813 10.9987 29.7067 11.2593 30.704 11.418L33.05 11.792C35.498 12.1773 37.3113 12.9367 38.49 14.07C39.6687 15.1807 40.258 16.7673 40.258 18.83C40.258 19.9633 40.054 21.006 39.646 21.958C39.238 22.91 38.6373 23.726 37.844 24.406C37.0733 25.086 36.11 25.6187 34.954 26.004C33.798 26.3667 32.4833 26.548 31.01 26.548Z" fill="url(#paint0_linear_447_2438)"/>
<path d="M30.3627 7.0167C30.7419 7.49243 30.8155 8.14318 30.5521 8.69155L22.5586 25.3309C22.2926 25.8846 21.7307 26.2348 21.1164 26.2298L14.7754 26.1778C13.6134 26.1682 12.856 24.9532 13.3592 23.9057L15.1949 20.0845C15.4255 19.6045 16.1224 19.6462 16.2941 20.1503C16.4659 20.6544 17.1627 20.6961 17.3933 20.216L23.0704 8.39849C23.2971 7.92667 22.9108 7.39133 22.3916 7.45774C21.8724 7.52416 21.486 6.98882 21.7127 6.517L23.7217 2.33516C24.228 1.28124 25.6619 1.11915 26.3907 2.03347L30.3627 7.0167Z" fill="#23AAF2"/>
<path d="M1.07987 12.5018C1.28671 12.7687 1.59707 12.8201 1.7264 12.8124L23.0859 8.54062C23.7838 7.11688 25.2513 4.10281 25.5379 3.43638C25.8962 2.60336 25.8609 2.50261 25.7017 2.04923C25.5744 1.68653 25.1478 1.54581 24.9504 1.52079L14.4303 4.6757C9.96517 5.97888 0.961049 8.61679 0.665871 8.74303C0.296895 8.90083 0.100731 9.30917 0.0203302 9.56371C-0.0439908 9.76735 0.0595818 10.2666 0.119409 10.4908C0.35338 11.0499 0.873031 12.2349 1.07987 12.5018Z" fill="url(#paint1_linear_447_2438)"/>
<path d="M7.08563 9.97091e-05C7.42325 -0.00523644 7.65733 0.20494 7.73217 0.310694L17.7468 19.6545C17.0715 21.0891 15.6358 24.1185 15.2947 24.7587C14.8683 25.5591 14.7676 25.5944 14.3142 25.7536C13.9515 25.8809 13.575 25.6358 13.4321 25.4973L9.32009 15.3132C7.54675 11.013 3.97857 2.33543 3.89264 2.0261C3.78521 1.63945 3.98138 1.23111 4.12984 1.00926C4.2486 0.831777 4.70309 0.600586 4.91549 0.507176C5.4982 0.340374 6.74802 0.00543668 7.08563 9.97091e-05Z" fill="#0082CF"/>
<defs>
<linearGradient id="paint0_linear_447_2438" x1="20.708" y1="15.14" x2="42.708" y2="15.14" gradientUnits="userSpaceOnUse">
<stop offset="0.275775" stop-color="#182730"/>
<stop offset="1" stop-color="#23AAF2"/>
</linearGradient>
<linearGradient id="paint1_linear_447_2438" x1="2.56587" y1="26.2298" x2="21.2769" y2="0.405128" gradientUnits="userSpaceOnUse">
<stop stop-color="#181818"/>
<stop offset="1" stop-color="#1A3E53"/>
</linearGradient>
</defs>
</svg>
