<svg width="54" height="54" viewBox="0 0 54 54" fill="none" xmlns="http://www.w3.org/2000/svg">
<path d="M43.875 6.75H10.125C8.33539 6.75195 6.61963 7.46374 5.35419 8.72919C4.08874 9.99464 3.37695 11.7104 3.375 13.5V40.5C3.37695 42.2896 4.08874 44.0054 5.35419 45.2708C6.61963 46.5363 8.33539 47.248 10.125 47.25H43.875C45.6646 47.248 47.3804 46.5363 48.6458 45.2708C49.9113 44.0054 50.623 42.2896 50.625 40.5V13.5C50.623 11.7104 49.9113 9.99464 48.6458 8.72919C47.3804 7.46374 45.6646 6.75195 43.875 6.75ZM35.4375 13.5C36.4388 13.5 37.4175 13.7969 38.2501 14.3532C39.0826 14.9095 39.7315 15.7001 40.1146 16.6252C40.4978 17.5502 40.5981 18.5681 40.4027 19.5501C40.2074 20.5322 39.7252 21.4342 39.0172 22.1422C38.3092 22.8502 37.4072 23.3324 36.4251 23.5277C35.4431 23.7231 34.4252 23.6228 33.5002 23.2396C32.5751 22.8565 31.7845 22.2076 31.2282 21.3751C30.6719 20.5426 30.375 19.5638 30.375 18.5625C30.3764 17.2203 30.9102 15.9334 31.8593 14.9843C32.8084 14.0352 34.0953 13.5014 35.4375 13.5ZM10.125 43.875C9.22989 43.875 8.37145 43.5194 7.73851 42.8865C7.10558 42.2535 6.75 41.3951 6.75 40.5V33.3671L16.7527 24.4761C17.7177 23.6202 18.9729 23.1644 20.2623 23.2017C21.5517 23.2389 22.7784 23.7663 23.6925 24.6765L30.5427 31.512L18.1796 43.875H10.125ZM47.25 40.5C47.25 41.3951 46.8944 42.2535 46.2615 42.8865C45.6285 43.5194 44.7701 43.875 43.875 43.875H22.9532L35.7592 31.069C36.6659 30.2979 37.8164 29.8731 39.0066 29.8701C40.1968 29.867 41.3496 30.2858 42.2603 31.0521L47.25 35.2097V40.5Z" fill="#7D7D7D"/>
</svg>
