<svg width="13" height="14" viewBox="0 0 13 14" fill="none" xmlns="http://www.w3.org/2000/svg">
<g clip-path="url(#clip0_303_151)">
<path d="M1.13448 6.02529C1.12798 5.9505 1.13711 5.87518 1.16127 5.8041C1.18543 5.73302 1.2241 5.66774 1.27483 5.61241C1.32556 5.55707 1.38723 5.51288 1.45595 5.48264C1.52466 5.45241 1.59891 5.43679 1.67398 5.43677H2.70829C2.85195 5.43677 2.98972 5.49383 3.09131 5.59542C3.19289 5.697 3.24996 5.83477 3.24996 5.97843V11.1243C3.24996 11.2679 3.19289 11.4057 3.09131 11.5073C2.98972 11.6089 2.85195 11.6659 2.70829 11.6659H2.12166C1.98609 11.666 1.85544 11.6152 1.7555 11.5235C1.65557 11.4319 1.59362 11.3062 1.58189 11.1711L1.13448 6.02529ZM4.87496 5.80916C4.87496 5.58275 5.01579 5.38016 5.22027 5.28375C5.66687 5.07304 6.42764 4.64972 6.77079 4.07745C7.21306 3.3397 7.29648 2.00693 7.31002 1.7017C7.31191 1.65891 7.31083 1.61612 7.31652 1.57387C7.38991 1.04493 8.41069 1.6627 8.80204 2.31595C9.01464 2.6702 9.04173 3.13577 9.01952 3.4995C8.99541 3.88841 8.88139 4.26406 8.76954 4.63727L8.53121 5.4327H11.4716C11.5553 5.4327 11.6379 5.45209 11.7128 5.48934C11.7878 5.5266 11.853 5.58072 11.9036 5.64744C11.9541 5.71417 11.9884 5.7917 12.004 5.87393C12.0195 5.95617 12.0157 6.04089 11.993 6.12143L10.5386 11.2716C10.5065 11.3852 10.4382 11.4852 10.344 11.5564C10.2499 11.6275 10.135 11.666 10.017 11.6659H5.41662C5.27296 11.6659 5.13519 11.6089 5.03361 11.5073C4.93202 11.4057 4.87496 11.2679 4.87496 11.1243V5.80916Z" fill="#7D7D7D" stroke="#7D7D7D" stroke-width="1.08333" stroke-linecap="round" stroke-linejoin="round"/>
</g>
<defs>
<clipPath id="clip0_303_151">
<rect width="13" height="13" fill="white" transform="translate(0 0.0200195)"/>
</clipPath>
</defs>
</svg>
