<svg width="26" height="26" viewBox="0 0 26 26" fill="none" xmlns="http://www.w3.org/2000/svg">
<path d="M9 23.2487C8.68318 23.566 8.30693 23.8177 7.89276 23.9895C7.4786 24.1613 7.03463 24.2498 6.58625 24.2499H1.75V19.4449C1.75 18.5399 2.11 17.6712 2.75 17.0312M9 23.2487L2.75 17.0312M9 23.2487L21.4675 10.7762M2.75 17.0312L15.23 4.53744L17.0125 2.75244C17.3297 2.43477 17.7064 2.18272 18.121 2.01072C18.5357 1.83871 18.9802 1.75012 19.4291 1.75C19.878 1.74988 20.3226 1.83825 20.7373 2.01004C21.1521 2.18183 21.5289 2.43368 21.8462 2.75119L23.2537 4.15994C23.8944 4.80061 24.2543 5.66954 24.2543 6.57557C24.2543 7.4816 23.8944 8.35053 23.2537 8.99119L21.4675 10.7762M21.4675 10.7762L15.2287 4.53744" stroke="white" stroke-width="1.875" stroke-linecap="round" stroke-linejoin="round"/>
</svg>
