<svg width="16" height="16" viewBox="0 0 16 16" fill="none" xmlns="http://www.w3.org/2000/svg">
<circle cx="8" cy="8" r="8" fill="#8B8B8B"/>
<rect x="1.33331" y="1.3335" width="13.3333" height="13.3333" rx="6.66667" fill="#8B8B8B"/>
<path d="M8.55547 8.55496H11.3332C11.4806 8.55496 11.6219 8.49643 11.7261 8.39224C11.8303 8.28805 11.8888 8.14675 11.8888 7.9994C11.8888 7.85206 11.8303 7.71075 11.7261 7.60657C11.6219 7.50238 11.4806 7.44385 11.3332 7.44385H8.55547H7.44436H4.66658C4.51924 7.44385 4.37793 7.50238 4.27374 7.60657C4.16955 7.71075 4.11102 7.85206 4.11102 7.9994C4.11102 8.14675 4.16955 8.28805 4.27374 8.39224C4.37793 8.49643 4.51924 8.55496 4.66658 8.55496H7.44436H8.55547Z" fill="white"/>
</svg>
