<svg width="18" height="18" viewBox="0 0 18 18" fill="none" xmlns="http://www.w3.org/2000/svg">
<path d="M13.9473 13.8022V14.6968H4.05273V13.8022H13.9473ZM9 1.80225C9.20344 1.80267 9.37347 1.86266 9.52148 1.98584L9.58398 2.04248C9.72532 2.18322 9.80179 2.34477 9.81836 2.53857L9.82227 2.62354V2.62451C9.82227 2.72831 9.80429 2.82498 9.76855 2.9165L9.72754 3.00635C9.65977 3.13215 9.57607 3.22733 9.47852 3.29834L9.23242 3.47705L9.41211 3.72217L11.7559 6.92822L11.9004 7.12646L12.124 7.02588L14.4678 5.97607L14.7334 5.85693L14.625 5.5874L14.5713 5.41846C14.5654 5.39514 14.5608 5.36981 14.5576 5.34229L14.5527 5.25146V5.24951C14.5527 5.04548 14.6129 4.87565 14.7363 4.72803L14.793 4.6665C14.9342 4.52527 15.0956 4.44808 15.2891 4.43115L15.375 4.42725C15.5784 4.42767 15.7485 4.48766 15.8965 4.61084L15.959 4.66748C16.1003 4.80822 16.1768 4.96977 16.1934 5.16357L16.1973 5.24854C16.1966 5.45318 16.1362 5.62331 16.0137 5.771L15.957 5.8335C15.7977 5.99386 15.6096 6.07215 15.375 6.07178L15.3486 6.06787C15.3044 6.05932 15.2583 6.05413 15.2119 6.05322L14.9482 6.04736L14.9072 6.30811L13.9912 12.0718H4.00879L3.09277 6.30811L3.05273 6.05322H2.79395L2.64746 6.06885C2.64013 6.07035 2.63483 6.07146 2.63184 6.07178H2.625C2.42122 6.07178 2.25153 6.01216 2.10449 5.88916L2.04297 5.83252C1.88165 5.67083 1.80321 5.48202 1.80273 5.24951L1.80664 5.16455C1.82104 4.9984 1.8794 4.85553 1.98535 4.729L2.04199 4.66748C2.1841 4.5257 2.34655 4.44831 2.54004 4.43115L2.625 4.42725C2.82786 4.42725 2.99791 4.48707 3.14648 4.61084L3.20898 4.66748C3.35093 4.80882 3.4281 4.97037 3.44434 5.16357L3.44727 5.24854V5.24951C3.44727 5.28247 3.4457 5.31304 3.44238 5.34131L3.42773 5.41846C3.41139 5.48298 3.39326 5.54027 3.37402 5.58936L3.26855 5.85791L3.53223 5.97607L5.87598 7.02588L6.09961 7.12646L6.24414 6.92822L8.58789 3.72217L8.76758 3.47705L8.52148 3.29834C8.44847 3.24519 8.38367 3.17818 8.32715 3.09521L8.27246 3.00635C8.20911 2.8887 8.17773 2.76272 8.17773 2.62451C8.17773 2.42048 8.23788 2.25065 8.36133 2.10303L8.41797 2.0415C8.55925 1.90027 8.72056 1.82308 8.91406 1.80615L9 1.80225Z" fill="white" stroke="white" stroke-width="0.605714"/>
</svg>
