<svg width="53" height="48" viewBox="0 0 53 48" fill="none" xmlns="http://www.w3.org/2000/svg">
<path d="M8.91376 38L0.522145 11.9674H6.26574L10.1445 24.4615L12.1958 32.6294H12.3077L14.2844 24.4615L18.1632 11.9674H23.7203L15.2541 38H8.91376Z" fill="#0088D2"/>
<path d="M39.4569 38.4476C37.1694 38.4476 35.23 38.0622 33.6387 37.2914C32.0474 36.4957 30.6923 35.4763 29.5734 34.2331L33.303 30.4662C35.0684 32.4553 37.244 33.4499 39.8299 33.4499C41.2222 33.4499 42.2541 33.1639 42.9254 32.5921C43.5968 32.0202 43.9324 31.2618 43.9324 30.317C43.9324 29.596 43.7335 28.9992 43.3357 28.5268C42.9379 28.0295 42.1298 27.6939 40.9114 27.5198L38.338 27.1841C35.5781 26.836 33.5517 26.0031 32.2588 24.6853C30.9907 23.3675 30.3567 21.6146 30.3567 19.4266C30.3567 18.258 30.5804 17.1888 31.028 16.2191C31.4755 15.2494 32.1096 14.4165 32.9301 13.7203C33.7755 13.0241 34.7949 12.4895 35.9884 12.1165C37.2067 11.7187 38.5867 11.5198 40.1282 11.5198C42.0925 11.5198 43.8205 11.8306 45.3124 12.4522C46.8042 13.0738 48.0847 13.9813 49.1539 15.1748L45.387 18.979C44.7654 18.258 44.007 17.6737 43.1119 17.2261C42.2417 16.7537 41.1352 16.5175 39.7926 16.5175C38.5245 16.5175 37.5797 16.7412 36.9581 17.1888C36.3365 17.6364 36.0257 18.258 36.0257 19.0536C36.0257 19.9487 36.2619 20.5952 36.7343 20.993C37.2316 21.3908 38.0272 21.6768 39.1212 21.8508L41.6947 22.2611C44.38 22.6838 46.3691 23.5167 47.662 24.7599C48.955 25.9782 49.6014 27.7187 49.6014 29.9813C49.6014 31.2246 49.3776 32.3683 48.9301 33.4126C48.4825 34.4569 47.8236 35.352 46.9534 36.0979C46.108 36.8438 45.0513 37.4281 43.7832 37.8508C42.5152 38.2486 41.0731 38.4476 39.4569 38.4476Z" fill="#22A7F2"/>
</svg>
