<svg width="13" height="12" viewBox="0 0 13 12" fill="none" xmlns="http://www.w3.org/2000/svg">
<path d="M11.2049 2.91245V8.73745C11.2049 8.93056 11.1282 9.11576 10.9916 9.25231C10.8551 9.38886 10.6699 9.46558 10.4767 9.46558H4.4242L2.94065 10.7471L2.93655 10.7503C2.80548 10.8613 2.63917 10.9222 2.46737 10.9218C2.36055 10.9216 2.25507 10.898 2.15837 10.8527C2.03259 10.7947 1.92617 10.7017 1.85184 10.5849C1.77751 10.468 1.73842 10.3322 1.73924 10.1937V2.91245C1.73924 2.71934 1.81595 2.53414 1.9525 2.39759C2.08905 2.26104 2.27425 2.18433 2.46737 2.18433H10.4767C10.6699 2.18433 10.8551 2.26104 10.9916 2.39759C11.1282 2.53414 11.2049 2.71934 11.2049 2.91245Z" fill="#6C6C6C"/>
</svg>
