<svg width="11" height="8" viewBox="0 0 11 8" fill="none" xmlns="http://www.w3.org/2000/svg">
<path d="M3.52564 6.1083L9.17564 0.458301C9.30897 0.324968 9.46453 0.258301 9.64231 0.258301C9.82009 0.258301 9.97564 0.324968 10.109 0.458301C10.2423 0.591634 10.309 0.750079 10.309 0.933634C10.309 1.11719 10.2423 1.27541 10.109 1.4083L3.99231 7.54163C3.85897 7.67497 3.70342 7.74163 3.52564 7.74163C3.34786 7.74163 3.19231 7.67497 3.05897 7.54163L0.192308 4.67497C0.0589744 4.54163 -0.00502564 4.38341 0.000307692 4.2003C0.00564103 4.01719 0.0751964 3.85875 0.208974 3.72497C0.342752 3.59119 0.501197 3.52452 0.684308 3.52497C0.867419 3.52541 1.02564 3.59208 1.15897 3.72497L3.52564 6.1083Z" fill="white"/>
</svg>
