<svg width="13" height="16" viewBox="0 0 13 16" fill="none" xmlns="http://www.w3.org/2000/svg">
<path d="M6.67601 0.927894L5.83601 0.424561L5.67601 1.39056C5.42134 2.91589 4.37934 4.33323 3.23001 5.32923C0.980007 7.27989 0.487341 9.39989 1.18401 11.1499C1.85067 12.8246 3.54267 13.9712 5.26001 14.1626L5.65734 14.2066C4.67467 13.6059 4.04401 12.2026 4.26401 11.1539C4.48134 10.1232 5.22267 9.15789 6.64667 8.26723L7.36467 7.81923L7.63267 8.62256C7.79067 9.09723 8.06401 9.47856 8.34201 9.86589C8.47534 10.0526 8.61067 10.2412 8.73467 10.4419C9.16334 11.1386 9.27667 11.9132 9.00001 12.6819C8.74801 13.3806 8.33267 13.9299 7.76001 14.2346L8.40667 14.1626C10.0187 13.9832 11.202 13.4319 11.9707 12.5099C12.7327 11.5959 13 10.4192 13 9.16656C13 7.99989 12.5207 6.79723 11.9553 5.79656C11.2927 4.62456 10.428 3.65123 9.48401 2.70789C9.32067 3.03456 9.33334 3.16656 8.99734 3.69123C8.56101 2.53253 7.74203 1.55761 6.67601 0.927894Z" fill="#F48139"/>
</svg>
