<svg width="20" height="20" viewBox="0 0 20 20" fill="none" xmlns="http://www.w3.org/2000/svg">
<path d="M17.5 17.5L13.8809 13.8809M13.8809 13.8809C14.5 13.2618 14.991 12.5269 15.3261 11.718C15.6611 10.9091 15.8336 10.0422 15.8336 9.16672C15.8336 8.29121 15.6611 7.42429 15.3261 6.61543C14.991 5.80657 14.5 5.07162 13.8809 4.45255C13.2618 3.83348 12.5269 3.3424 11.718 3.00736C10.9091 2.67232 10.0422 2.49988 9.16672 2.49988C8.29121 2.49988 7.42429 2.67232 6.61543 3.00736C5.80657 3.3424 5.07162 3.83348 4.45255 4.45255C3.20227 5.70282 2.49988 7.39856 2.49988 9.16672C2.49988 10.9349 3.20227 12.6306 4.45255 13.8809C5.70282 15.1312 7.39856 15.8336 9.16672 15.8336C10.9349 15.8336 12.6306 15.1312 13.8809 13.8809Z" stroke="white" stroke-width="1.33333" stroke-linecap="round" stroke-linejoin="round"/>
</svg>
