<svg width="10" height="8" viewBox="0 0 10 8" fill="none" xmlns="http://www.w3.org/2000/svg">
<path d="M6.79412 6.30884V7.27943H0V6.30884C0 6.30884 0 4.36766 3.39706 4.36766C6.79412 4.36766 6.79412 6.30884 6.79412 6.30884ZM5.09559 1.69855C5.09559 1.36261 4.99597 1.03422 4.80933 0.754895C4.6227 0.475573 4.35742 0.257868 4.04706 0.129311C3.73669 0.000753126 3.39517 -0.0328834 3.06569 0.0326547C2.73621 0.0981928 2.43356 0.259962 2.19602 0.497506C1.95847 0.735049 1.7967 1.0377 1.73117 1.36718C1.66563 1.69666 1.69926 2.03818 1.82782 2.34855C1.95638 2.65891 2.17408 2.92419 2.45341 3.11082C2.73273 3.29746 3.06112 3.39708 3.39706 3.39708C3.84754 3.39708 4.27956 3.21812 4.5981 2.89959C4.91664 2.58105 5.09559 2.14903 5.09559 1.69855ZM6.765 4.36766C7.06333 4.59854 7.30745 4.89199 7.48017 5.22737C7.65288 5.56274 7.75001 5.93189 7.76471 6.30884V7.27943H9.70588V6.30884C9.70588 6.30884 9.70588 4.54722 6.765 4.36766ZM6.30882 1.78571e-05C5.97483 -0.00153564 5.64824 0.098305 5.37221 0.286341C5.66699 0.698228 5.8255 1.19204 5.8255 1.69855C5.8255 2.20506 5.66699 2.69887 5.37221 3.11075C5.64824 3.29879 5.97483 3.39863 6.30882 3.39708C6.7593 3.39708 7.19133 3.21812 7.50987 2.89959C7.8284 2.58105 8.00735 2.14903 8.00735 1.69855C8.00735 1.24807 7.8284 0.816042 7.50987 0.497506C7.19133 0.17897 6.7593 1.78571e-05 6.30882 1.78571e-05Z" fill="#6C6C6C"/>
</svg>
