<svg width="8" height="15" viewBox="0 0 8 15" fill="none" xmlns="http://www.w3.org/2000/svg">
<path d="M7.30331 13.8366L1.53956 7.9803C1.41315 7.85253 1.34224 7.68004 1.34224 7.5003C1.34224 7.32056 1.41315 7.14808 1.53956 7.0203L7.30205 1.16405C7.4284 1.03548 7.49919 0.862437 7.49919 0.682179C7.49919 0.501921 7.4284 0.328874 7.30205 0.200304C7.24033 0.136994 7.16656 0.0866786 7.08509 0.052324C7.00362 0.0179693 6.9161 0.000270065 6.82768 0.000270068C6.73926 0.000270072 6.65174 0.0179694 6.57027 0.052324C6.4888 0.0866786 6.41503 0.136994 6.3533 0.200304L0.590806 6.0553C0.212149 6.44096 -3.5149e-07 6.95983 -3.27865e-07 7.5003C-3.0424e-07 8.04077 0.212149 8.55965 0.590806 8.9453L6.35331 14.8003C6.41505 14.8638 6.48889 14.9143 6.57048 14.9487C6.65207 14.9832 6.73974 15.001 6.82831 15.001C6.91687 15.001 7.00454 14.9832 7.08613 14.9487C7.16772 14.9143 7.24156 14.8638 7.30331 14.8003C7.42965 14.6717 7.50045 14.4987 7.50045 14.3184C7.50045 14.1382 7.42965 13.9651 7.30331 13.8366Z" fill="white"/>
</svg>
