<svg width="10" height="10" viewBox="0 0 10 10" fill="none" xmlns="http://www.w3.org/2000/svg">
<path d="M0.872656 4.61946C0.86766 4.56193 0.874678 4.50398 0.893264 4.44931C0.91185 4.39464 0.941597 4.34442 0.980619 4.30186C1.01964 4.25929 1.06708 4.2253 1.11994 4.20204C1.1728 4.17878 1.22991 4.16676 1.28766 4.16675H2.08328C2.19379 4.16675 2.29977 4.21065 2.37791 4.28879C2.45605 4.36693 2.49995 4.47291 2.49995 4.58341V8.54175C2.49995 8.65225 2.45605 8.75823 2.37791 8.83637C2.29977 8.91452 2.19379 8.95841 2.08328 8.95841H1.63203C1.52775 8.95844 1.42724 8.91936 1.35037 8.84889C1.2735 8.77842 1.22584 8.68168 1.21682 8.57779L0.872656 4.61946ZM3.74995 4.45321C3.74995 4.27904 3.85828 4.12321 4.01557 4.04904C4.35911 3.88696 4.94432 3.56133 5.20828 3.12112C5.54849 2.55362 5.61266 1.52841 5.62307 1.29362C5.62453 1.26071 5.6237 1.22779 5.62807 1.19529C5.68453 0.788414 6.46974 1.26362 6.77078 1.76612C6.93432 2.03862 6.95516 2.39675 6.93807 2.67654C6.91953 2.97571 6.83182 3.26466 6.74578 3.55175L6.56245 4.16362H8.82432C8.8887 4.16362 8.9522 4.17853 9.00984 4.20719C9.06749 4.23585 9.11771 4.27748 9.15656 4.32881C9.19542 4.38014 9.22185 4.43977 9.23379 4.50303C9.24573 4.56629 9.24284 4.63146 9.22536 4.69341L8.10661 8.65508C8.08192 8.74245 8.02935 8.81937 7.95692 8.87413C7.88449 8.92888 7.79616 8.95848 7.70536 8.95841H4.16661C4.05611 8.95841 3.95013 8.91452 3.87199 8.83637C3.79385 8.75823 3.74995 8.65225 3.74995 8.54175V4.45321Z" fill="#4F9FEC" stroke="#4F9FEC" stroke-width="1.08333" stroke-linecap="round" stroke-linejoin="round"/>
</svg>
