<svg width="12" height="12" viewBox="0 0 12 12" fill="none" xmlns="http://www.w3.org/2000/svg">
<path d="M7.67996 8.1597V9.1197H0.959961V8.1597C0.959961 8.1597 0.959961 6.2397 4.31996 6.2397C7.67996 6.2397 7.67996 8.1597 7.67996 8.1597ZM5.99996 3.5997C5.99996 3.26742 5.90143 2.94261 5.71683 2.66634C5.53223 2.39006 5.26985 2.17473 4.96287 2.04758C4.65589 1.92042 4.3181 1.88715 3.99221 1.95198C3.66632 2.0168 3.36697 2.1768 3.13202 2.41176C2.89707 2.64671 2.73706 2.94606 2.67224 3.27194C2.60742 3.59783 2.64069 3.93562 2.76784 4.2426C2.895 4.54958 3.11033 4.81196 3.3866 4.99656C3.66288 5.18117 3.98769 5.2797 4.31996 5.2797C4.76552 5.2797 5.19284 5.1027 5.5079 4.78763C5.82296 4.47257 5.99996 4.04526 5.99996 3.5997ZM7.65116 6.2397C7.94624 6.46805 8.18769 6.7583 8.35853 7.09002C8.52936 7.42173 8.62542 7.78686 8.63996 8.1597V9.1197H10.56V8.1597C10.56 8.1597 10.56 6.4173 7.65116 6.2397ZM7.19996 1.9197C6.86962 1.91816 6.54658 2.01691 6.27356 2.2029C6.56513 2.61029 6.72191 3.09871 6.72191 3.5997C6.72191 4.10068 6.56513 4.5891 6.27356 4.9965C6.54658 5.18248 6.86962 5.28123 7.19996 5.2797C7.64552 5.2797 8.07284 5.1027 8.3879 4.78763C8.70296 4.47257 8.87996 4.04526 8.87996 3.5997C8.87996 3.15413 8.70296 2.72682 8.3879 2.41176C8.07284 2.0967 7.64552 1.9197 7.19996 1.9197Z" fill="white"/>
</svg>
