<svg width="11" height="8" viewBox="0 0 11 8" fill="none" xmlns="http://www.w3.org/2000/svg">
<path d="M3.52564 6.10833L9.17564 0.458331C9.30897 0.324998 9.46453 0.258331 9.64231 0.258331C9.82009 0.258331 9.97564 0.324998 10.109 0.458331C10.2423 0.591665 10.309 0.750109 10.309 0.933665C10.309 1.11722 10.2423 1.27544 10.109 1.40833L3.99231 7.54166C3.85897 7.675 3.70342 7.74166 3.52564 7.74166C3.34786 7.74166 3.19231 7.675 3.05897 7.54166L0.192308 4.675C0.0589744 4.54166 -0.00502564 4.38344 0.000307692 4.20033C0.00564103 4.01722 0.0751964 3.85878 0.208974 3.725C0.342752 3.59122 0.501197 3.52455 0.684308 3.525C0.867419 3.52544 1.02564 3.59211 1.15897 3.725L3.52564 6.10833Z" fill="white"/>
</svg>
